PathFileType	4	(X/Y/Z)	C:\Git\research_data\torsion_deformities_healthy_kinematics\simulations\P03\pre\Static01\markers.trc
DataRate	CameraRate	NumFrames	NumMarkers	Units	OrigDataRate	OrigDataStartFrame	OrigNumFrames
150.000000	150.000000	4	104	mm	150.000000	18	150
Frame#	Time	LFHD			LBHD			RFHD			RBHD			C7			T10			CLAV			STRN			RBAK			LSHO			LUPA			LELB			LFRA			LWRB			LWRA			LFIN			RSHO			RUPA			RELB			RFRA			RWRB			RWRA			RFIN			SACR			LASI			RASI			LT1			LT2			LT3			LS1			LS2			LS3			LHEE			LTOE			RT1			RT2			RT3			RS1			RS2			RS3			RHEE			RTOE			LKNE			LKNM			LANK			LANM			RKNM			RKNE			RANM			RANK			SACO			SACA			SACL			SACP			LKJC			RKJC			LAJC			RAJC			LMMA			RMMA			LTHI			RTHI			LTIB			RTIB			funktRKJC			funktLKJC			funktRHIP			funktLHIP			LHJC			RHJC			LPelvisAngles			RPelvisAngles			LFootProgressAngles			RFootProgressAngles			LHipAngles			RHipAngles			LKneeAngles			RKneeAngles			LAnkleAngles			RAnkleAngles			LFFootAngles			RFFootAngles			LAbsAnkleAngle			RAbsAnkleAngle			RNeckAngles			LNeckAngles			RSpineAngles			LSpineAngles			LShoulderAngles			LElbowAngles			LWristAngles			RShoulderAngles			RElbowAngles			RWristAngles			RThoraxAngles			LThoraxAngles			RHeadAngles			LHeadAngles			LNormalisedGRF			RNormalisedGRF			LGroundReactionForce			RGroundReactionForce			LGRF			RGRF			
		X1	Y1	Z1	X2	Y2	Z2	X3	Y3	Z3	X4	Y4	Z4	X5	Y5	Z5	X6	Y6	Z6	X7	Y7	Z7	X8	Y8	Z8	X9	Y9	Z9	X10	Y10	Z10	X11	Y11	Z11	X12	Y12	Z12	X13	Y13	Z13	X14	Y14	Z14	X15	Y15	Z15	X16	Y16	Z16	X17	Y17	Z17	X18	Y18	Z18	X19	Y19	Z19	X20	Y20	Z20	X21	Y21	Z21	X22	Y22	Z22	X23	Y23	Z23	X24	Y24	Z24	X25	Y25	Z25	X26	Y26	Z26	X27	Y27	Z27	X28	Y28	Z28	X29	Y29	Z29	X30	Y30	Z30	X31	Y31	Z31	X32	Y32	Z32	X33	Y33	Z33	X34	Y34	Z34	X35	Y35	Z35	X36	Y36	Z36	X37	Y37	Z37	X38	Y38	Z38	X39	Y39	Z39	X40	Y40	Z40	X41	Y41	Z41	X42	Y42	Z42	X43	Y43	Z43	X44	Y44	Z44	X45	Y45	Z45	X46	Y46	Z46	X47	Y47	Z47	X48	Y48	Z48	X49	Y49	Z49	X50	Y50	Z50	X51	Y51	Z51	X52	Y52	Z52	X53	Y53	Z53	X54	Y54	Z54	X55	Y55	Z55	X56	Y56	Z56	X57	Y57	Z57	X58	Y58	Z58	X59	Y59	Z59	X60	Y60	Z60	X61	Y61	Z61	X62	Y62	Z62	X63	Y63	Z63	X64	Y64	Z64	X65	Y65	Z65	X66	Y66	Z66	X67	Y67	Z67	X68	Y68	Z68	X69	Y69	Z69	X70	Y70	Z70	X71	Y71	Z71	X72	Y72	Z72	X73	Y73	Z73	X74	Y74	Z74	X75	Y75	Z75	X76	Y76	Z76	X77	Y77	Z77	X78	Y78	Z78	X79	Y79	Z79	X80	Y80	Z80	X81	Y81	Z81	X82	Y82	Z82	X83	Y83	Z83	X84	Y84	Z84	X85	Y85	Z85	X86	Y86	Z86	X87	Y87	Z87	X88	Y88	Z88	X89	Y89	Z89	X90	Y90	Z90	X91	Y91	Z91	X92	Y92	Z92	X93	Y93	Z93	X94	Y94	Z94	X95	Y95	Z95	X96	Y96	Z96	X97	Y97	Z97	X98	Y98	Z98	X99	Y99	Z99	X100	Y100	Z100	X101	Y101	Z101	X102	Y102	Z102	X103	Y103	Z103	X104	Y104	Z104	

19	0.12	382.2379150390623	1440.438110351562	-1132.102172851562	361.7429199218748	1421.16357421875	-993.0633544921875	498.1869506835936	1441.395874023438	-1138.91015625	510.587921142578	1421.583251953125	-986.6556396484375	442.1055603027343	1274.260375976562	-962.8023071289062	444.1185302734374	1094.64013671875	-914.6312255859375	426.2466735839843	1213.448486328125	-1094.5576171875	421.7119750976561	1160.857543945312	-1127.341674804688	541.3856811523435	1177.316284179688	-933.2257080078125	310.3735351562499	1263.184814453125	-1035.98388671875	217.3722381591796	1045.38427734375	-976.3211059570312	189.2827301025389	971.7265014648438	-966.85302734375	145.4516601562499	889.251953125	-982.2665405273438	89.49897766113271	769.4965209960938	-1027.322875976562	123.6098022460936	776.1508178710938	-1085.2138671875	77.23194122314442	718.4688720703125	-1114.6533203125	558.6156616210935	1252.193359375	-1061.086791992188	648.3021850585935	1078.302978515625	-1053.281494140625	702.3288574218748	959.8114013671875	-1031.689453125	755.3280639648436	831.42724609375	-1092.757690429688	775.3931884765624	751.432373046875	-1105.013549804688	723.4248046874999	747.7693481445312	-1147.821166992188	769.1510620117186	701.1207885742188	-1189.341552734375	429.2572021484374	875.2828369140625	-917.5783081054688	277.2241821289061	871.1314697265625	-1073.296142578125	519.9727783203124	879.2444458007812	-1126.093017578125	242.1961059570312	586.1421508789062	-1128.424682617188	230.694366455078	474.4732360839844	-1079.038330078125	275.0169372558593	531.5541381835938	-1203.418579101562	282.2121276855468	217.1018981933594	-1033.088134765625	342.0552978515624	148.5074005126953	-950.4564208984375	254.0053558349609	131.6237030029297	-1062.053833007812	367.8074035644531	41.79354095458987	-973.7952880859375	262.0969848632812	41.30736160278322	-1083.177490234375	591.7369384765624	608.343017578125	-1133.491943359375	585.7007446289061	510.6099548339844	-1056.459716796875	582.2993774414061	534.859375	-1198.34619140625	587.0546874999999	266.9882507324219	-1088.923828125	561.7251586914061	217.3508911132813	-981.3518676757812	582.4130859374999	176.7737731933594	-1116.61767578125	500.1100158691406	44.98702239990237	-981.9758911132812	570.6694946289061	41.80073165893558	-1123.357299804688	267.1659545898437	432.5980224609375	-1147.663208007812	366.3958435058593	421.6122436523438	-1164.557373046875	304.6199035644531	49.57006835937502	-994.1653442382812	356.6651916503906	47.21592330932619	-1044.949951171875	465.9085693359374	424.4045104980469	-1165.1337890625	568.4395141601561	440.2339172363282	-1164.913452148438	490.8087463378906	52.92071533203128	-1062.910278320312	552.2496337890624	47.64768600463871	-1019.098937988281	423.2483520507811	875.4271240234375	-986.323486328125	422.0158386230468	875.4151611328125	-991.9920654296875	417.5828857421874	875.23779296875	-985.0912475585938	421.3728637695311	933.40625	-986.0380249023438	316.7808837890624	427.1051330566406	-1156.110229492188	517.1740722656249	432.3192138671876	-1165.023559570312	330.6425476074218	48.39299774169924	-1019.5576171875	521.5291748046874	50.28419876098636	-1041.004638671875	356.6651916503906	47.21592330932619	-1044.949951171875	490.8087463378906	52.92071533203128	-1062.910278320312	224.3596801757812	611.4436645507812	-1084.331420898438	601.9624023437499	624.8209838867188	-1117.915161132812	241.8671722412109	243.916000366211	-1008.950378417969	613.3388061523436	244.0151977539063	-1039.410278320312	0	0	0	0	0	0	0	0	0	0	0	0	353.6885375976561	783.2371215820312	-1046.441772460938	467.1376342773436	786.2027587890625	-1070.550170898438	-1.85285723209381	-12.27314186096191	-0.282183140516281	1.85285723209381	12.27314186096191	-0.2821831405162812	13.04337501525879	-43.99695205688477	0.2266550809144966	9.109311103820803	-26.50804328918457	1.329851031303405	-3.73215913772583	4.963968276977539	18.0437068939209	-8.929924011230469	-10.35193347930908	13.04236888885498	2.024457931518559	-33.49665069580078	37.63034820556641	7.068814754486088	-30.74244499206543	32.92414093017578	1.264045715332032	-2.494762659072876	15.38725852966309	-0.4620109200477595	5.356159687042236	14.63892555236816	-7.087915798449466e-15	3.18055471858951e-15	6.957463513089007e-16	-1.490885052132102e-14	-9.129038034951065e-31	1.789061910092592e-15	9.29604576866506e-16	0	15.18159484863281	8.907370346760644e-16	0	14.54683971405029	-0.5862803459167492	8.011648178100586	-11.44659996032715	0.5862803459167478	-8.011648178100586	-11.44659996032715	2.911213397979736	5.916186809539795	3.773983478546143	-2.911213397979735	-5.916186809539795	3.773983478546143	18.98739624023438	-11.71522235870361	-9.500152587890627	5.538896064304511e-15	-3.434999138428318e-13	38.5146369934082	-12.62687397003174	128.5381622314453	16.08998489379883	24.42337608337402	0.6501455903053298	-8.847466468811037	2.615877773076493e-15	2.649401965176823e-12	36.22772598266602	-0.213700920343406	132.3232421875	19.08550453186035	-0.6208254098892214	6.40906810760498	3.791051626205444	0.6208254098892219	-6.40906810760498	3.791051626205444	0.2838976979255682	-1.577528119087219	7.634756565093994	-0.2838976979255673	1.577528119087219	7.634756565093994	0	0	0	0	0	0	0	0	0	0	0	0	0	0	0	0	0	0	
20	0.1266666666666667	382.2644958496092	1440.491577148438	-1132.038452148438	361.7950134277342	1421.144409179688	-993.0048828125	498.2084960937498	1441.462280273438	-1138.86181640625	510.6387939453123	1421.574462890625	-986.6326293945312	442.157257080078	1274.295288085938	-962.8002319335938	444.1688842773436	1094.6748046875	-914.6099853515625	426.3110046386718	1213.455078125	-1094.533325195312	421.7773132324218	1160.844970703125	-1127.318481445312	541.4471435546873	1177.354736328125	-933.217041015625	310.4285888671874	1263.187866210938	-1035.988647460938	217.4535675048827	1045.38330078125	-976.2725830078125	189.4029693603514	971.7194213867188	-966.7911987304688	145.5595092773436	889.2357788085938	-982.1718139648438	89.58981323242178	769.4774780273438	-1027.158813476562	123.6542282104491	776.1162109375	-1085.042846679688	77.27848052978504	718.4320068359375	-1114.484741210938	558.6687011718748	1252.216430664062	-1061.084594726562	648.3841552734373	1078.344360351562	-1053.253051757812	702.4252319335935	959.8486938476562	-1031.693603515625	755.4651489257811	831.4998779296875	-1092.828491210938	775.5239868164061	751.5079956054688	-1105.0224609375	723.5736083984374	747.8369750976562	-1147.858642578125	769.3230590820311	701.224853515625	-1189.391723632812	429.3012695312499	875.3148803710938	-917.4866943359375	277.2950439453124	871.132568359375	-1073.241577148438	520.0380859374999	879.255615234375	-1126.023193359375	242.2498321533202	586.1582641601562	-1128.396728515625	230.7705688476562	474.5041198730469	-1078.98046875	275.084259033203	531.5670776367188	-1203.37060546875	282.2159118652343	217.1111755371094	-1033.072387695312	342.0450744628906	148.5031127929688	-950.4322509765625	254.0071411132812	131.6383972167969	-1062.046020507812	367.7898864746093	41.79571533203127	-973.7696533203125	262.0889892578124	41.31393051147462	-1083.175537109375	591.7744140624999	608.3577270507812	-1133.447509765625	585.7551269531249	510.6296997070313	-1056.401733398438	582.2971191406249	534.8699340820312	-1198.287963867188	587.0712890624999	266.9877929687501	-1088.8837890625	561.7543945312499	217.335189819336	-981.3207397460938	582.4127807617186	176.7830047607422	-1116.60302734375	500.1192626953124	44.98027038574222	-981.9664306640625	570.6676025390624	41.79664993286136	-1123.3564453125	267.2214050292968	432.625732421875	-1147.6416015625	366.4592285156249	421.6260681152344	-1164.509765625	304.6136779785156	49.56761550903322	-994.1561889648438	356.6615600585937	47.22009658813479	-1044.934448242188	465.9166870117187	424.4323425292969	-1165.030883789062	568.4466552734374	440.2538146972657	-1164.853271484375	490.8106994628906	52.92342376708987	-1062.889770507812	552.2587280273436	47.6457443237305	-1019.09716796875	423.309600830078	875.4501342773438	-986.2598266601562	422.0774841308593	875.4373779296875	-991.928466796875	417.644073486328	875.2605590820312	-985.0279541015625	421.429962158203	933.4291381835938	-985.98193359375	316.8403320312499	427.1259155273438	-1156.07568359375	517.1817016601561	432.3430786132813	-1164.942016601562	330.6376342773437	48.39385604858401	-1019.545288085938	521.5347290039061	50.28458404541018	-1040.993408203125	356.6615600585937	47.22009658813479	-1044.934448242188	490.8106994628906	52.92342376708987	-1062.889770507812	224.4204864501952	611.4713134765625	-1084.309448242188	601.9981689453124	624.8321533203125	-1117.880859375	241.8832550048827	243.9315032958985	-1008.935241699219	613.3599243164061	244.0084228515625	-1039.38427734375	0	0	0	0	0	0	0	0	0	0	0	0	353.760040283203	783.2471313476562	-1046.369995117188	467.2103271484374	786.2176513671875	-1070.472045898438	-1.856975555419921	-12.26972103118896	-0.2744364738464354	1.856975555419921	12.26972103118896	-0.2744364738464357	13.04988479614258	-43.99338531494141	0.2214211970567695	9.10070323944092	-26.50159072875977	1.331783413887023	-3.735926151275634	4.979302883148193	18.05818176269531	-8.91729736328125	-10.32731246948242	13.05320835113525	2.027356386184697	-33.50521087646484	37.630615234375	7.073151588439945	-30.75409126281738	32.91079711914062	1.264403820037843	-2.497589826583862	15.38241767883301	-0.4604210853576655	5.351362705230713	14.62872982025146	-6.460501553759261e-15	-4.770832183763385e-15	1.341796538448562e-15	-3.950845422031387e-15	-1.590277359294755e-15	1.789061910092592e-15	9.292558960823897e-16	0	15.17590045928955	8.902800298499896e-16	0	14.5393762588501	-0.5908923745155346	7.997653961181641	-11.48001766204834	0.5908923745155332	-7.997653961181641	-11.48001766204834	2.914653539657593	5.916926383972168	3.770134687423706	-2.914653539657592	-5.916926383972168	3.770134687423706	18.97391319274902	-11.76293468475342	-9.507777214050295	7.671270856497542e-16	3.244165732493171e-13	38.49933624267578	-12.64315605163575	128.5534362792969	16.10649871826172	24.4323558807373	0.6418206691741958	-8.83926582336426	-9.621762104846297e-16	4.4686793870298e-13	36.2288703918457	-0.197070151567466	132.3200988769531	19.10178565979004	-0.6208531856536867	6.4048171043396	3.795173645019531	0.6208531856536872	-6.4048171043396	3.795173645019531	0.2873728871345526	-1.566902041435242	7.664070606231689	-0.2873728871345517	1.566902041435242	7.664070606231689	0	0	0	0	0	0	0	0	0	0	0	0	0	0	0	0	0	0	
21	0.1333333333333333	382.2941284179686	1440.549072265625	-1131.977172851562	361.8504028320311	1421.1240234375	-992.9503784179688	498.2325439453123	1441.52783203125	-1138.819213867188	510.6918640136717	1421.561279296875	-986.6140747070312	442.2081909179686	1274.32958984375	-962.8028564453125	444.222686767578	1094.713134765625	-914.5863037109375	426.373077392578	1213.45458984375	-1094.5166015625	421.8424072265624	1160.818603515625	-1127.292358398438	541.510314941406	1177.398193359375	-933.2117309570312	310.482208251953	1263.188842773438	-1035.999755859375	217.5315704345702	1045.383666992188	-976.2216796875	189.514190673828	971.7203369140625	-966.7265625	145.6605682373046	889.2279052734375	-982.0735473632812	89.67955017089834	769.4559326171875	-1026.99609375	123.7006988525389	776.0804443359375	-1084.876342773438	77.3242950439452	718.3969116210938	-1114.324340820312	558.715637207031	1252.233520507812	-1061.09033203125	648.4669189453123	1078.381103515625	-1053.229125976562	702.5209960937498	959.8795776367188	-1031.700317382812	755.5961303710936	831.5662841796875	-1092.873657226562	775.6599121093749	751.5770874023438	-1105.038452148438	723.7218627929686	747.8955078125	-1147.88525390625	769.4999389648436	701.3224487304688	-1189.439453125	429.3493652343749	875.34130859375	-917.395751953125	277.3655395507811	871.1309814453125	-1073.184204101562	520.1037597656249	879.2708129882812	-1125.954467773438	242.3128509521484	586.1737060546875	-1128.378173828125	230.8614959716796	474.5260009765625	-1078.924926757812	275.1744079589843	531.5800170898438	-1203.33154296875	282.2207336425781	217.117660522461	-1033.063110351562	342.0306091308593	148.4976043701172	-950.41015625	254.0145111083984	131.6512756347657	-1062.048950195312	367.7778625488281	41.79580307006838	-973.7516479492188	262.0885009765624	41.31734466552736	-1083.177368164062	591.8053588867186	608.3718872070312	-1133.402954101562	585.7938842773436	510.6528625488282	-1056.330932617188	582.2880249023436	534.8812255859375	-1198.230590820312	587.0837402343749	266.9879455566407	-1088.846923828125	561.7817382812499	217.3200988769532	-981.2907104492188	582.4069824218749	176.7933197021485	-1116.591796875	500.1289672851562	44.97313308715823	-981.9558715820312	570.6630859374999	41.79401397705082	-1123.35595703125	267.2723083496093	432.6566162109375	-1147.650268554688	366.5338439941406	421.6353454589844	-1164.451904296875	304.6096801757812	49.56570434570315	-994.1497192382812	356.6613769531249	47.22364807128908	-1044.917358398438	465.9116821289062	424.4687500000001	-1164.920288085938	568.4451904296874	440.2770690917969	-1164.796020507812	490.8091430664062	52.92325210571292	-1062.868896484375	552.2675170898436	47.64315032958988	-1019.095886230469	423.372589111328	875.4698486328125	-986.1957397460938	422.140655517578	875.4564208984375	-991.8644409179688	417.7070312499999	875.2799072265625	-984.9640502929688	421.4879150390624	933.44873046875	-985.923583984375	316.9030761718749	427.14599609375	-1156.051025390625	517.1784057617186	432.3728942871094	-1164.858154296875	330.6355285644531	48.39467620849612	-1019.533508300781	521.5383300781249	50.28319931030276	-1040.982421875	356.6613769531249	47.22364807128908	-1044.917358398438	490.8091430664062	52.92325210571292	-1062.868896484375	224.4779968261718	611.5114135742188	-1084.338256835938	602.0272827148436	624.84521484375	-1117.857055664062	241.8979187011718	243.947006225586	-1008.928894042969	613.3778076171874	244.0044555664063	-1039.358520507812	0	0	0	0	0	0	0	0	0	0	0	0	353.8341064453124	783.2549438476562	-1046.300170898438	467.285186767578	786.2333984375	-1070.3974609375	-1.862187027931213	-12.2672119140625	-0.2688957452774047	1.862187027931213	12.2672119140625	-0.2688957452774049	13.05449199676514	-43.98641586303711	0.2188929021358482	9.093849182128908	-26.49465751647949	1.331651449203491	-3.740504503250122	5.020205497741699	18.07201385498047	-8.901389122009277	-10.29907417297363	13.06166458129883	2.044522047042851	-33.53016662597656	37.6326904296875	7.077280044555668	-30.76982498168945	32.89546585083008	1.264548659324647	-2.499741554260254	15.37725734710693	-0.4585662484169001	5.345458030700684	14.61922264099121	-9.423635408524565e-15	1.590277359294755e-15	3.031466120202676e-15	8.199867617319969e-16	1.590277359294755e-15	9.939233892638914e-16	9.289649686554149e-16	0	15.17114925384521	8.898142072717121e-16	0	14.53176879882812	-0.5919923782348644	7.983999252319336	-11.51938724517822	0.5919923782348631	-7.983999252319336	-11.51938724517822	2.918415546417236	5.917887210845947	3.772759199142456	-2.918415546417235	-5.917887210845947	3.772759199142456	18.96370887756348	-11.80181884765625	-9.513248443603517	3.151769031060778e-15	3.498610093039672e-13	38.4866943359375	-12.65265655517579	128.5614776611328	16.12820053100586	24.44096374511719	0.6316932439804092	-8.827912330627443	-9.621523850348764e-16	-1.079003206228002e-12	36.2292594909668	-0.1776307672262261	132.3292846679688	19.11767768859863	-0.6193391084671023	6.401266574859619	3.803587198257446	0.6193391084671027	-6.401266574859619	3.803587198257446	0.2889963090419775	-1.556281447410583	7.69514274597168	-0.2889963090419766	1.556281447410583	7.69514274597168	0	0	0	0	0	0	0	0	0	0	0	0	0	0	0	0	0	0	
22	0.14	382.3261108398436	1440.609252929688	-1131.91943359375	361.9082031249998	1421.103149414062	-992.9000244140625	498.258819580078	1441.591186523438	-1138.78466796875	510.7471923828123	1421.544189453125	-986.5989379882812	442.2597656249999	1274.36083984375	-962.8109741210938	444.2789916992186	1094.753540039062	-914.5623779296875	426.4317016601561	1213.448974609375	-1094.508422851562	421.9059143066405	1160.781860351562	-1127.265869140625	541.5731201171873	1177.444580078125	-933.20947265625	310.5348510742186	1263.18798828125	-1036.017456054688	217.6038513183593	1045.385986328125	-976.1708984375	189.6118011474608	971.7235717773438	-966.6618041992188	145.7508392333983	889.2280883789062	-981.9686279296875	89.76744079589834	769.430419921875	-1026.840454101562	123.7598800659179	776.042236328125	-1084.723266601562	77.37223052978504	718.3616333007812	-1114.169189453125	558.7574462890623	1252.24462890625	-1061.105102539062	648.5488281249998	1078.412963867188	-1053.210693359375	702.6156616210935	959.9047241210938	-1031.708251953125	755.7180175781249	831.6234741210938	-1092.884155273438	775.8059082031249	751.6362915039062	-1105.070678710938	723.8714599609374	747.9459228515625	-1147.905395507812	769.6751708984374	701.4052124023438	-1189.481567382812	429.4036865234374	875.36181640625	-917.3123168945312	277.4334106445311	871.1251831054688	-1073.126953125	520.1688232421874	879.2887573242188	-1125.887451171875	242.3838806152343	586.1871948242188	-1128.365478515625	230.9551544189452	474.5366516113281	-1078.879516601562	275.2838745117186	531.5932006835938	-1203.301635742188	282.2276916503906	217.1216278076172	-1033.058959960938	342.0140075683593	148.4905700683594	-950.391845703125	254.027114868164	131.6621246337891	-1062.061157226562	367.7716064453124	41.79267501831057	-973.7422485351562	262.0950012207031	41.31758117675783	-1083.182739257812	591.8309326171874	608.3841552734375	-1133.35791015625	585.8191528320311	510.6763000488282	-1056.250244140625	582.2747802734374	534.8912963867188	-1198.174560546875	587.0927734374999	266.9879760742188	-1088.81103515625	561.8069458007811	217.3052520751953	-981.2611083984375	582.3966064453124	176.8031616210938	-1116.583862304688	500.1387939453124	44.96594619750979	-981.9442749023438	570.6555786132811	41.79217910766605	-1123.35498046875	267.3282470703124	432.6725463867188	-1147.649780273438	366.6140747070312	421.6395568847656	-1164.38427734375	304.6087341308593	49.56341934204104	-994.14404296875	356.6640930175781	47.22612762451174	-1044.89892578125	465.8953552246093	424.5095214843751	-1164.802612304688	568.4359741210936	440.3004150390626	-1164.740966796875	490.8039855957031	52.92057800292972	-1062.849487304688	552.2751464843749	47.639518737793	-1019.094421386719	423.4346313476561	875.48583984375	-986.1326904296875	422.202911376953	875.471923828125	-991.8013916015625	417.7690429687499	875.2952880859375	-984.9011840820312	421.5430297851561	933.4644775390625	-985.8641357421875	316.9711608886718	427.1560668945312	-1156.01708984375	517.1656494140624	432.4049682617188	-1164.771850585938	330.6364135742187	48.39477157592776	-1019.521484375	521.5395507812499	50.28004837036136	-1040.972045898438	356.6640930175781	47.22612762451174	-1044.89892578125	490.8039855957031	52.92057800292972	-1062.849487304688	224.5382232666015	611.5430908203125	-1084.36181640625	602.0502319335936	624.8583984375	-1117.842895507812	241.9180603027343	243.9558563232422	-1008.921264648438	613.3901367187499	244.001953125	-1039.330932617188	0	0	0	0	0	0	0	0	0	0	0	0	353.9087829589843	783.25927734375	-1046.234130859375	467.3604736328124	786.2489624023438	-1070.3271484375	-1.868603348731994	-12.26501846313477	-0.2652795910835265	1.868603348731994	12.26501846313477	-0.2652795910835267	13.05632400512696	-43.97615432739258	0.2183491587638847	9.088424682617189	-26.48773002624512	1.329948663711547	-3.746249437332153	5.060216903686523	18.08193016052246	-8.882388114929199	-10.26726913452148	13.06782245635986	2.060271024703984	-33.55347061157227	37.63166809082031	7.081481933593754	-30.79060554504395	32.87810516357422	1.263790011405946	-2.499058961868286	15.37063407897949	-0.4567671418189997	5.339708805084229	14.6101131439209	5.764755467148157e-15	3.529894665355098e-31	7.702905975627579e-16	2.981770061912556e-15	-1.590277359294755e-15	1.987846699118442e-16	9.286317627344356e-16	0	15.1657075881958	8.893305156061896e-16	0	14.52386951446533	-0.5902073979377758	7.971169471740723	-11.56315803527832	0.5902073979377744	-7.971169471740723	-11.56315803527832	2.923155784606934	5.917950630187988	3.780775308609009	-2.923155784606933	-5.917950630187988	3.780775308609009	18.95702362060547	-11.82706260681152	-9.516724586486818	3.151221512884336e-15	-5.899928982866509e-13	38.47775268554688	-12.64985656738282	128.5666351318359	16.14799118041992	24.44936561584473	0.6171033978462234	-8.814566612243654	6.28167953502325e-16	1.828818943071936e-13	36.22996139526367	-0.1662147641182015	132.3494873046875	19.12687301635742	-0.6169061064720156	6.398964405059814	3.815594673156738	0.616906106472016	-6.398964405059814	3.815594673156738	0.2887143492698676	-1.54561710357666	7.72710657119751	-0.2887143492698666	1.54561710357666	7.72710657119751	0	0	0	0	0	0	0	0	0	0	0	0	0	0	0	0	0	0	
